<svg version="1.1" xmlns="http://www.w3.org/2000/svg" xmlns:xlink="http://www.w3.org/1999/xlink" width="183" height="64"><defs><clipPath id="oSIggsxAmIOB"><path fill="none" stroke="none" d=" M 0 0 L 183 0 L 183 64 L 0 64 L 0 0 Z"/></clipPath></defs><g transform="scale(1,1)" clip-path="url(#oSIggsxAmIOB)"><g transform="translate(-70,-258)"><path fill="none" stroke="rgb(0,0,0)" paint-order="fill stroke markers" d=" M 450.5 115 L 471.5 115 C 472.880711874577 115 474 116.11928812542301 474 117.5 L 474 138.5 C 474 139.88071187457697 472.880711874577 141 471.5 141 L 450.5 141 C 449.119288125423 141 448 139.88071187457697 448 138.5 L 448 117.5 C 448 116.11928812542301 449.119288125423 115 450.5 115 Z" stroke-opacity="1" stroke-linecap="round" stroke-linejoin="round" stroke-miterlimit="10"/><path fill="rgb(255,255,255)" stroke="none" paint-order="stroke fill markers" fill-rule="evenodd" d=" M 451.5 116 L 470.5 116 C 471.880711874577 116 473 117.11928812542301 473 118.5 L 473 137.5 C 473 138.88071187457697 471.880711874577 140 470.5 140 L 451.5 140 C 450.119288125423 140 449 138.88071187457697 449 137.5 L 449 118.5 C 449 117.11928812542301 450.119288125423 116 451.5 116 Z" fill-opacity="1"/><path fill="none" stroke="rgb(68,68,68)" paint-order="fill stroke markers" d=" M 453 130 L 458 135 Z" stroke-opacity="1" stroke-linecap="round" stroke-linejoin="round" stroke-miterlimit="10" stroke-width="4"/><path fill="none" stroke="rgb(68,68,68)" paint-order="fill stroke markers" d=" M 458 135 L 468 121 Z" stroke-opacity="1" stroke-linecap="round" stroke-linejoin="round" stroke-miterlimit="10" stroke-width="4"/><text fill="rgb(0,0,0)" stroke="none" font-family="geogebra-sans-serif, sans-serif" font-size="32px" font-style="normal" font-weight="normal" text-decoration="normal" x="483" y="140" text-anchor="start" dominant-baseline="alphabetic" fill-opacity="1">Serif</text><g transform="scale(35,35)"><g transform="translate(2.4502142857142855,8.379142857142856)"><path fill="rgb(0,0,0)" stroke="none" paint-order="stroke fill markers" d=" M 0.0068359375 -0.55908203125 L -0.0068359375 -0.5849609375 L 0.27783203125 -0.744140625 L 0.56201171875 -0.5849609375 L 0.5478515625 -0.55908203125 L 0.27783203125 -0.68115234375 L 0.0068359375 -0.55908203125 Z"/></g><g transform="translate(2.2857142857142856,8.634142857142857)"><path fill="rgb(0,0,0)" stroke="none" paint-order="stroke fill markers" d=" M 0.737 -0.61 L 0.737 -0.229 Q 0.737 -0.129 0.6665 -0.059000000000000004 Q 0.596 0.011 0.462 0.011 Q 0.313 0.011 0.23 -0.0575 Q 0.147 -0.126 0.147 -0.231 L 0.147 -0.639 L 0.039 -0.639 L 0.039 -0.686 Q 0.077 -0.683 0.218 -0.683 Q 0.359 -0.683 0.397 -0.686 L 0.397 -0.639 L 0.289 -0.639 L 0.289 -0.223 Q 0.289 -0.198 0.2905 -0.181 Q 0.292 -0.164 0.3015 -0.134 Q 0.311 -0.10400000000000001 0.328 -0.085 Q 0.34500000000000003 -0.066 0.3805 -0.051000000000000004 Q 0.41600000000000004 -0.036000000000000004 0.466 -0.036000000000000004 Q 0.509 -0.036000000000000004 0.5465 -0.0465 Q 0.584 -0.057 0.6155 -0.079 Q 0.647 -0.101 0.6655 -0.1405 Q 0.684 -0.18 0.684 -0.233 L 0.684 -0.61 Q 0.684 -0.627 0.68 -0.6305000000000001 Q 0.676 -0.634 0.654 -0.636 Q 0.627 -0.639 0.601 -0.639 L 0.5760000000000001 -0.639 L 0.5760000000000001 -0.686 Q 0.617 -0.683 0.711 -0.683 Q 0.807 -0.683 0.845 -0.686 L 0.845 -0.639 L 0.8200000000000001 -0.639 Q 0.79 -0.639 0.766 -0.636 Q 0.745 -0.634 0.741 -0.6305000000000001 Q 0.737 -0.627 0.737 -0.61 Z"/></g><g transform="translate(3.1707142857142854,8.634142857142857)"><path fill="rgb(0,0,0)" stroke="none" paint-order="stroke fill markers" d=" M 0.289 -0.302 L 0.289 -0.047 L 0.397 -0.047 L 0.397 0 Q 0.359 -0.003 0.218 -0.003 Q 0.077 -0.003 0.039 0 L 0.039 -0.047 L 0.147 -0.047 L 0.147 -0.639 L 0.039 -0.639 L 0.039 -0.686 L 0.456 -0.686 Q 0.578 -0.686 0.6495 -0.631 Q 0.721 -0.5760000000000001 0.721 -0.491 Q 0.721 -0.406 0.6475 -0.354 Q 0.5740000000000001 -0.302 0.466 -0.302 L 0.289 -0.302 M 0.417 -0.343 Q 0.448 -0.343 0.47250000000000003 -0.34800000000000003 Q 0.497 -0.353 0.513 -0.3595 Q 0.529 -0.366 0.54 -0.379 Q 0.551 -0.392 0.5565 -0.4025 Q 0.562 -0.41300000000000003 0.5645 -0.431 Q 0.5670000000000001 -0.449 0.5675 -0.46 Q 0.5680000000000001 -0.47100000000000003 0.5680000000000001 -0.491 Q 0.5680000000000001 -0.515 0.5670000000000001 -0.5275 Q 0.5660000000000001 -0.54 0.5625 -0.5605 Q 0.559 -0.581 0.5495 -0.5925 Q 0.54 -0.604 0.524 -0.616 Q 0.508 -0.628 0.481 -0.6335000000000001 Q 0.454 -0.639 0.418 -0.639 L 0.28300000000000003 -0.639 L 0.28300000000000003 -0.343 L 0.417 -0.343 Z"/></g><g transform="translate(3.9567142857142854,8.634142857142857)"><path fill="rgb(0,0,0)" stroke="none" paint-order="stroke fill markers" d=" M 0.318 -0.17400000000000002 L 0.013000000000000001 -0.17400000000000002 L 0.013000000000000001 -0.271 L 0.318 -0.271 L 0.318 -0.17400000000000002 Z"/></g><g transform="translate(4.339714285714285,8.634142857142857)"><path fill="rgb(0,0,0)" stroke="none" paint-order="stroke fill markers" d=" M 0.592 -0.018000000000000002 Q 0.606 0.003 0.619 0.016 Q 0.632 0.029 0.6445 0.034 Q 0.657 0.039 0.6645 0.04 Q 0.672 0.041 0.684 0.041 Q 0.763 0.041 0.769 0.002 Q 0.772 -0.018000000000000002 0.787 -0.018000000000000002 Q 0.805 -0.018000000000000002 0.805 0.008 Q 0.805 0.047 0.793 0.08700000000000001 Q 0.781 0.127 0.748 0.1605 Q 0.715 0.194 0.668 0.194 Q 0.641 0.194 0.62 0.1835 Q 0.599 0.17300000000000001 0.5865 0.16 Q 0.5740000000000001 0.147 0.562 0.11750000000000001 Q 0.55 0.088 0.544 0.0665 Q 0.538 0.045 0.527 0.002 Q 0.482 0.011 0.432 0.011 Q 0.261 0.011 0.1625 -0.08600000000000001 Q 0.064 -0.183 0.064 -0.339 Q 0.064 -0.499 0.1635 -0.598 Q 0.263 -0.6970000000000001 0.432 -0.6970000000000001 Q 0.598 -0.6970000000000001 0.6985 -0.599 Q 0.799 -0.501 0.799 -0.339 Q 0.799 -0.294 0.789 -0.251 Q 0.779 -0.20800000000000002 0.7575000000000001 -0.1625 Q 0.736 -0.117 0.6935 -0.079 Q 0.651 -0.041 0.592 -0.018000000000000002 M 0.337 -0.051000000000000004 Q 0.334 -0.058 0.334 -0.073 Q 0.334 -0.108 0.363 -0.1315 Q 0.392 -0.155 0.431 -0.155 Q 0.462 -0.155 0.489 -0.1385 Q 0.516 -0.122 0.528 -0.1075 Q 0.54 -0.093 0.556 -0.069 Q 0.652 -0.135 0.652 -0.34 Q 0.652 -0.48 0.611 -0.552 Q 0.552 -0.657 0.431 -0.657 Q 0.41100000000000003 -0.657 0.39 -0.653 Q 0.369 -0.649 0.343 -0.638 Q 0.317 -0.627 0.2915 -0.6035 Q 0.266 -0.58 0.248 -0.546 Q 0.211 -0.47500000000000003 0.211 -0.34 Q 0.211 -0.299 0.214 -0.268 Q 0.217 -0.23700000000000002 0.2275 -0.1905 Q 0.23800000000000002 -0.14400000000000002 0.266 -0.108 Q 0.294 -0.07200000000000001 0.337 -0.051000000000000004 M 0.514 -0.045 Q 0.491 -0.11900000000000001 0.432 -0.11900000000000001 Q 0.40700000000000003 -0.11900000000000001 0.3885 -0.106 Q 0.37 -0.093 0.37 -0.073 Q 0.37 -0.064 0.3735 -0.0555 Q 0.377 -0.047 0.392 -0.038 Q 0.40700000000000003 -0.029 0.432 -0.029 Q 0.47800000000000004 -0.029 0.514 -0.045 Z"/></g><g transform="translate(5.203714285714285,8.634142857142857)"><path fill="rgb(0,0,0)" stroke="none" paint-order="stroke fill markers" d=" M 0.766 -0.669 L 0.766 -0.454 Q 0.766 -0.434 0.762 -0.43 Q 0.758 -0.426 0.739 -0.426 Q 0.722 -0.426 0.718 -0.429 Q 0.714 -0.432 0.712 -0.447 Q 0.6960000000000001 -0.54 0.633 -0.595 Q 0.5700000000000001 -0.65 0.487 -0.65 Q 0.359 -0.65 0.28300000000000003 -0.5730000000000001 Q 0.217 -0.504 0.217 -0.343 Q 0.217 -0.193 0.276 -0.121 Q 0.34800000000000003 -0.036000000000000004 0.49 -0.036000000000000004 Q 0.5750000000000001 -0.036000000000000004 0.6445 -0.08700000000000001 Q 0.714 -0.138 0.719 -0.231 Q 0.72 -0.243 0.725 -0.2455 Q 0.73 -0.248 0.742 -0.248 Q 0.756 -0.248 0.761 -0.2445 Q 0.766 -0.241 0.766 -0.227 Q 0.766 -0.135 0.6825 -0.062 Q 0.599 0.011 0.466 0.011 Q 0.28200000000000003 0.011 0.17300000000000001 -0.088 Q 0.064 -0.187 0.064 -0.343 Q 0.064 -0.499 0.17300000000000001 -0.598 Q 0.28200000000000003 -0.6970000000000001 0.466 -0.6970000000000001 Q 0.579 -0.6970000000000001 0.663 -0.629 L 0.729 -0.6880000000000001 Q 0.739 -0.6970000000000001 0.748 -0.6970000000000001 Q 0.76 -0.6970000000000001 0.763 -0.6915 Q 0.766 -0.686 0.766 -0.669 Z"/></g><g transform="translate(6.034714285714285,8.634142857142857)"><path fill="rgb(0,0,0)" stroke="none" paint-order="stroke fill markers" d=" M 0.766 -0.669 L 0.766 -0.454 Q 0.766 -0.434 0.762 -0.43 Q 0.758 -0.426 0.739 -0.426 Q 0.722 -0.426 0.718 -0.429 Q 0.714 -0.432 0.712 -0.447 Q 0.6960000000000001 -0.54 0.633 -0.595 Q 0.5700000000000001 -0.65 0.487 -0.65 Q 0.359 -0.65 0.28300000000000003 -0.5730000000000001 Q 0.217 -0.504 0.217 -0.343 Q 0.217 -0.193 0.276 -0.121 Q 0.34800000000000003 -0.036000000000000004 0.49 -0.036000000000000004 Q 0.5750000000000001 -0.036000000000000004 0.6445 -0.08700000000000001 Q 0.714 -0.138 0.719 -0.231 Q 0.72 -0.243 0.725 -0.2455 Q 0.73 -0.248 0.742 -0.248 Q 0.756 -0.248 0.761 -0.2445 Q 0.766 -0.241 0.766 -0.227 Q 0.766 -0.135 0.6825 -0.062 Q 0.599 0.011 0.466 0.011 Q 0.28200000000000003 0.011 0.17300000000000001 -0.088 Q 0.064 -0.187 0.064 -0.343 Q 0.064 -0.499 0.17300000000000001 -0.598 Q 0.28200000000000003 -0.6970000000000001 0.466 -0.6970000000000001 Q 0.579 -0.6970000000000001 0.663 -0.629 L 0.729 -0.6880000000000001 Q 0.739 -0.6970000000000001 0.748 -0.6970000000000001 Q 0.76 -0.6970000000000001 0.763 -0.6915 Q 0.766 -0.686 0.766 -0.669 Z"/></g></g><path fill="rgb(255,255,255)" stroke="none" paint-order="stroke fill markers" fill-rule="evenodd" d=" M 37.5 109 L 166.5 109 C 168.43299662440776 109 170 110.56700337559222 170 112.5 L 170 139.5 C 170 141.43299662440776 168.43299662440776 143 166.5 143 L 37.5 143 C 35.56700337559222 143 34 141.43299662440776 34 139.5 L 34 112.5 C 34 110.56700337559222 35.56700337559222 109 37.5 109 Z" fill-opacity="1"/><path fill="none" stroke="rgb(0,0,0)" paint-order="fill stroke markers" d=" M 37.5 109 L 166.5 109 C 168.43299662440776 109 170 110.56700337559222 170 112.5 L 170 139.5 C 170 141.43299662440776 168.43299662440776 143 166.5 143 L 37.5 143 C 35.56700337559222 143 34 141.43299662440776 34 139.5 L 34 112.5 C 34 110.56700337559222 35.56700337559222 109 37.5 109 Z" stroke-opacity="1" stroke-linecap="round" stroke-linejoin="round" stroke-miterlimit="10"/><text fill="rgb(0,0,0)" stroke="none" font-family="geogebra-sans-serif, sans-serif" font-size="24px" font-style="normal" font-weight="normal" text-decoration="normal" x="44" y="136" text-anchor="start" dominant-baseline="alphabetic" fill-opacity="1">Show SVG</text><path fill="rgb(255,255,255)" stroke="none" paint-order="stroke fill markers" fill-rule="evenodd" d=" M 204.5 106 L 380.5 106 C 382.4329966244078 106 384 107.56700337559222 384 109.5 L 384 136.5 C 384 138.43299662440776 382.4329966244078 140 380.5 140 L 204.5 140 C 202.56700337559224 140 201 138.43299662440776 201 136.5 L 201 109.5 C 201 107.56700337559222 202.56700337559224 106 204.5 106 Z" fill-opacity="1"/><path fill="none" stroke="rgb(0,0,0)" paint-order="fill stroke markers" d=" M 204.5 106 L 380.5 106 C 382.4329966244078 106 384 107.56700337559222 384 109.5 L 384 136.5 C 384 138.43299662440776 382.4329966244078 140 380.5 140 L 204.5 140 C 202.56700337559224 140 201 138.43299662440776 201 136.5 L 201 109.5 C 201 107.56700337559222 202.56700337559224 106 204.5 106 Z" stroke-opacity="1" stroke-linecap="round" stroke-linejoin="round" stroke-miterlimit="10"/><text fill="rgb(0,0,0)" stroke="none" font-family="geogebra-sans-serif, sans-serif" font-size="24px" font-style="normal" font-weight="normal" text-decoration="normal" x="211" y="133" text-anchor="start" dominant-baseline="alphabetic" fill-opacity="1">Download SVG</text><path fill="rgb(255,255,255)" stroke="none" paint-order="stroke fill markers" fill-rule="evenodd" d=" M 212 30 L 722 30 C 724.2091389993232 30 726 31.790861000676827 726 34 L 726 75 C 726 77.20913899932317 724.2091389993232 79 722 79 L 212 79 C 209.7908610006768 79 208 77.20913899932317 208 75 L 208 34 C 208 31.790861000676827 209.7908610006768 30 212 30 Z" fill-opacity="1"/><path fill="none" stroke="rgb(0,0,0)" paint-order="fill stroke markers" d=" M 212 30 L 722 30 C 724.2091389993232 30 726 31.790861000676827 726 34 L 726 75 C 726 77.20913899932317 724.2091389993232 79 722 79 L 212 79 C 209.7908610006768 79 208 77.20913899932317 208 75 L 208 34 C 208 31.790861000676827 209.7908610006768 30 212 30 Z" stroke-opacity="1" stroke-linecap="round" stroke-linejoin="round" stroke-miterlimit="10"/><text fill="rgb(0,0,0)" stroke="none" font-family="geogebra-sans-serif, sans-serif" font-size="32px" font-style="normal" font-weight="normal" text-decoration="normal" x="210" y="66" text-anchor="start" dominant-baseline="alphabetic" fill-opacity="1">\[ \widehat{\text{\textbf{U}}}\text{\text</text><text fill="rgb(0,0,0)" stroke="none" font-family="geogebra-sans-serif, sans-serif" font-size="32px" font-style="normal" font-weight="normal" text-decoration="normal" x="30" y="66" text-anchor="start" dominant-baseline="alphabetic" fill-opacity="1">Enter LaTeX</text></g></g></svg>